<?xml version="1.0" encoding="utf-8"?>
<!-- Generator: Adobe Illustrator 26.0.3, SVG Export Plug-In . SVG Version: 6.00 Build 0)  -->
<svg version="1.1" id="Layer_1" xmlns="http://www.w3.org/2000/svg" xmlns:xlink="http://www.w3.org/1999/xlink" x="0px" y="0px"
	 viewBox="0 0 190.8 48" style="enable-background:new 0 0 190.8 48;" xml:space="preserve">
<path d="M384.9-21.4c0,2.1,0.6,2.3,3,2.6v2.1H373v-2.1c2.1-0.2,2.9-0.4,2.9-2.6v-3h-9.4l-2.2,3.2c-7.3,10.3-14.9,14-23.2,14
	c-9.9,0-16.1-5.8-16.1-13.2c0.1-5.6,4.6-10.1,10.2-10.2c5.2,0,8.3,2.8,8.3,6c0.1,2.2-1.5,4.1-3.8,4.2c-0.1,0-0.2,0-0.3,0
	c-4,0-3.4-5.6-6.6-5.6c-2.1,0-4.2,2.3-4.2,5.5c0,6.4,6.5,9.8,12.6,9.8c7,0,14-3.2,20.7-12.8l12.3-17.4c0.9-1.3,0-2-1.3-2h-12.2
	c-5.8,0-9.2,3.1-9.2,6.8c0,3.4,1.9,5,3.5,5c0.7,0.1,1.3-0.4,1.3-1c0-0.1,0-0.2,0-0.3c0-1.2-0.8-1.5-0.8-3.1c-0.1-2,1.5-3.7,3.6-3.7
	c0.1,0,0.1,0,0.2,0c3,0,4.3,2.6,4.3,4.9c0,3.9-3.2,6.9-7.9,6.9c-4.4,0-7.8-2.9-7.8-8.5c0-6.8,6-10.1,12.8-10.1h24.3V-21.4z
	 M368.9-27.8h6.9v-9.7L368.9-27.8z"/>
<path d="M388.9-13.1v-1.8c1.5-0.2,1.8-0.5,1.8-1.4v-14.8c0-0.7-0.2-1-0.8-1h-1v-1.8l6-3.1h2.5v1.6c1.3-1.1,2.9-1.6,4.6-1.6
	c4.4,0,7.7,3.3,7.7,8.9s-3.4,8.9-8.7,8.9c-1.3,0-2.5-0.3-3.6-0.8v3.7c0,0.9,0.3,1.2,1.8,1.4v1.8L388.9-13.1z M397.4-23.5
	c0.5,0.8,1.4,1.3,2.3,1.2c2.2,0,3.2-1.6,3.2-5.9s-1.1-5.8-3.2-5.8c-0.9-0.1-1.8,0.4-2.3,1.2V-23.5z"/>
<path d="M410.8-13.1v-1.8c1.5-0.2,1.8-0.5,1.8-1.4v-14.8c0-0.7-0.2-1-0.8-1h-1v-1.8l6-3.1h2.5v1.6c1.3-1.1,2.9-1.6,4.6-1.6
	c4.3,0,7.7,3.3,7.7,8.9s-3.4,8.9-8.7,8.9c-1.3,0-2.5-0.3-3.6-0.8v3.7c0,0.9,0.3,1.2,1.8,1.4v1.8L410.8-13.1z M419.3-23.5
	c0.5,0.8,1.4,1.3,2.3,1.2c2.2,0,3.2-1.6,3.2-5.9s-1-5.8-3.2-5.8c-0.9-0.1-1.8,0.4-2.3,1.2V-23.5z"/>
<path d="M432.9-19.7v-1.8c1.5-0.2,1.8-0.5,1.8-1.4v-16.6c0-0.7-0.2-1-0.8-1h-1v-1.8l6-3.1h2.5V-23c0,0.9,0.3,1.2,1.8,1.4v1.8
	L432.9-19.7z"/>
<path d="M444.3-19.7v-1.8c1.5-0.2,1.8-0.5,1.8-1.4v-8.2c0-0.7-0.2-1-0.8-1h-1v-1.8l6-3.1h2.5V-23c0,0.9,0.3,1.2,1.8,1.4v1.8
	L444.3-19.7z M453.3-42c0,1.9-1.6,3.5-3.6,3.4c-0.1,0-0.1,0-0.2,0c-1.9,0.1-3.5-1.3-3.7-3.2c0-0.1,0-0.2,0-0.2
	c0-1.9,1.6-3.5,3.5-3.5c0.1,0,0.1,0,0.2,0c2-0.1,3.6,1.4,3.8,3.3C453.3-42.1,453.3-42,453.3-42L453.3-42z"/>
<path d="M462.6-28.6v0.5c0,4.3,1.2,6,3.9,6c1.9,0,3.9-1.3,5.2-3.9l2.3,1.4c-1.7,3.2-4,5.4-8.4,5.4c-6,0-9.8-3.7-9.8-8.9
	s3.9-8.9,9.2-8.9c5.7,0,8.5,3.3,8.5,8.4L462.6-28.6z M467.3-31.4c0-1.9-0.8-3.1-2.1-3.1c-1.5,0-2.2,0.9-2.5,3.1H467.3z"/>
<path d="M485.8-42.3l6-3.1h2.5V-23c0,0.9,0.3,1.2,1.8,1.4v1.8c-2.8,0-5.7,0.2-8.5,0.5v-1.6c-1.3,1.1-2.9,1.7-4.6,1.6
	c-4.3,0-7.7-3.3-7.7-8.9s3.4-8.9,7.7-8.9c1.7-0.1,3.3,0.5,4.6,1.6v-4.1c0-0.7-0.2-1-0.8-1h-1V-42.3z M487.6-32.7
	c-0.5-0.8-1.4-1.3-2.3-1.3c-2.2,0-3.2,1.6-3.2,5.9s1,5.8,3.2,5.8c0.9,0,1.8-0.4,2.3-1.2V-32.7z"/>
<path d="M516.2-42.3l6-3.1h2.5V-23c0,0.9,0.3,1.2,1.8,1.4v1.8c-2.8,0-5.7,0.2-8.5,0.5v-1.6c-1.3,1.1-2.9,1.7-4.6,1.6
	c-4.4,0-7.7-3.3-7.7-8.9s3.4-8.9,7.7-8.9c1.7-0.1,3.3,0.5,4.6,1.6v-4.1c0-0.7-0.2-1-0.8-1h-1V-42.3z M518-32.7
	c-0.5-0.8-1.4-1.3-2.3-1.3c-2.2,0-3.2,1.6-3.2,5.9s1,5.8,3.2,5.8c0.9,0.1,1.8-0.4,2.3-1.2V-32.7z"/>
<path d="M534.5-28.6v0.5c0,4.3,1.2,6,3.9,6c1.9,0,3.9-1.3,5.2-3.9l2.3,1.4c-1.7,3.2-4,5.4-8.4,5.4c-6,0-9.8-3.7-9.8-8.9
	s3.9-8.9,9.3-8.9c5.7,0,8.5,3.3,8.5,8.4L534.5-28.6z M539.2-31.4c0-1.9-0.8-3.1-2.1-3.1c-1.6,0-2.2,0.9-2.5,3.1H539.2z"/>
<path d="M563.9-25.4c0,4-3.6,6.2-8,6.2c-1.9,0-3.8-0.5-5.5-1.5l-0.4,0.9h-1.6l-1.3-6.2l1.5-0.4c1.8,2.9,4.9,4.6,7.1,4.6
	c1.3,0,2-0.6,2-1.5s-1.5-1.6-3.3-2.3c-2.9-1-6.6-2.3-6.6-6c0-3.4,3.5-5.7,7.4-5.7c1.7-0.1,3.4,0.5,4.9,1.5l0.5-0.9h1.6l1.1,5.6
	l-1.6,0.4c-1.5-2.6-4-4.2-5.7-4.2c-1,0-1.6,0.5-1.6,1.3c0,1,1.3,1.6,3,2.2C560.6-30,563.9-28.8,563.9-25.4z"/>
<path d="M564.9-19.7v-1.8c1.5-0.2,1.8-0.5,1.8-1.4v-8.2c0-0.7-0.2-1-0.8-1h-1v-1.8l6-3.1h2.5V-23c0,0.9,0.3,1.2,1.8,1.4v1.8
	L564.9-19.7z M573.9-42c0,1.9-1.6,3.5-3.6,3.4c-0.1,0-0.1,0-0.2,0c-1.9,0.1-3.5-1.3-3.7-3.2c0-0.1,0-0.2,0-0.2
	c0-1.9,1.6-3.5,3.5-3.5c0.1,0,0.1,0,0.2,0c2-0.1,3.6,1.3,3.8,3.3C574-42.1,574-42,573.9-42L573.9-42z"/>
<path d="M590.6-35.5c1.5,1,2.4,2.7,2.3,4.5c0,3.5-3.1,6-8,6c-1.1,0-2.1-0.2-3.2-0.3c-0.5,0-0.8,0.2-0.8,0.5c0,0.7,1.9,0.8,6.7,1
	s7,2,7,5.3c0,4.1-4.5,5.9-9.7,5.9c-3.7,0-8.5-1-8.5-4.2c0-1.1,0.7-2.2,1.8-2.5c-1.2-0.7-1.9-2.1-1.8-3.5c-0.1-1.7,1.1-3.3,2.7-3.8
	c-1.5-1-2.3-2.7-2.3-4.4c0-3.5,3.1-6,8-6c1,0,1.9,0.1,2.9,0.3c1.3-1.8,3.3-2.9,5.5-3c1.4,0,2.7,0.7,2.7,2.3c0,1.2-0.9,2.2-2.1,2.2
	c0,0,0,0,0,0c-1.4,0-1.3-0.9-2.2-0.9C591.2-36.1,590.8-35.8,590.6-35.5z M585.7-17.8c-1.4-0.1-2.8-0.2-4.1-0.4
	c-0.5,0.1-0.9,0.6-1,1.2c0,0.8,1,2,4.4,2c3,0,4.1-1,4.1-1.6C589-17.5,588.5-17.7,585.7-17.8L585.7-17.8z M586.9-31
	c0-2.5-0.7-3.5-2-3.5s-2,1-2,3.5s0.7,3.5,2,3.5S586.9-28.5,586.9-31L586.9-31z"/>
<path d="M615.5-15c0,4.8,2.5,6.4,5.3,6.4c2.4,0,4.1-1.5,4.1-3.3c0-1.2-0.6-1.8-1.3-1.8c-1.2,0-1.4,2-3.6,2c-1.6-0.1-2.9-1.4-2.9-3
	c0-2.1,1.8-3.6,4.5-3.6c3.3-0.1,6.2,2.4,6.3,5.8c0,0.1,0,0.2,0,0.4c0,3.3-2.6,6.6-8,6.6c-7.1,0-11.2-4.2-11.2-11.3v-14.3
	c0.1-1-0.6-2-1.7-2.1c-0.1,0-0.3,0-0.4,0c-0.9,0-1.8,0.3-2.5,0.9v9.5c0,0.9,0.3,1.2,1.8,1.4v1.8h-10.3v-1.8c1.5-0.2,1.8-0.5,1.8-1.4
	v-8.2c0-0.7-0.2-1-0.8-1h-1v-1.8l6-3.1h2.5v1.8c1.6-1.1,3.4-1.7,5.3-1.8c2.9,0,6,1,6,6L615.5-15z"/>
<path d="M-753.2,84.8c0-1.3-1.5-1.8-2.9-1.8h-2.1c-5.9,0-9.2,3.3-9.2,7.2c0,3.4,1.9,5,3.5,5c0.7,0.1,1.3-0.4,1.4-1
	c0-0.1,0-0.2,0-0.3c0-1.2-0.8-1.4-0.8-3.1c-0.1-2,1.5-3.7,3.6-3.7c0.1,0,0.1,0,0.2,0c3,0,4.3,2.6,4.3,4.9c0,3.9-3.2,6.9-7.9,6.9
	c-4.4,0-7.8-2.9-7.8-8.5c0-7.1,6-10.5,12.8-10.5h16.6c9.6,0,14.8,1.6,14.8,7.9c0,6.8-5.2,8.3-15,8.3h-2.3v11.4
	c0,8.4-5.9,11.8-11.8,11.8c-5.2,0-7.3-2.1-7.3-4.9c0-1.9,1.5-3.5,3.4-3.6c0.1,0,0.1,0,0.2,0c4.2,0,3.5,4.2,5,4.2
	c1.1,0,1.4-1.9,1.4-5.2L-753.2,84.8z M-742.8,83.1c-0.7,0-1.2,0.5-1.3,1.1c0,0,0,0.1,0,0.1v8.2h2.3c3.2,0,5.3-1,5.3-4.9
	s-2.1-4.5-5.1-4.5H-742.8z"/>
<path d="M-706.1,97.8c0,5.3-3.7,8.9-9.8,8.9s-9.8-3.7-9.8-8.9s3.7-8.9,9.8-8.9S-706.1,92.5-706.1,97.8z M-712.9,97.8
	c0-4.3-0.6-6.4-3-6.4s-3,2.1-3,6.4s0.6,6.4,3,6.4S-712.9,102-712.9,97.8z"/>
<path d="M-695,93.4c-0.5,0-1,0.2-1.4,0.6v8.9c0,0.9,0.3,1.2,1.8,1.4v1.8h-10.3v-1.8c1.5-0.2,1.8-0.5,1.8-1.4v-8.1c0-0.7-0.2-1-0.8-1
	h-1V92l6-3.1h2.5v2c1.1-1.2,2.6-1.9,4.2-2c1.8-0.1,3.4,1.2,3.5,3.1c0.1,1.8-1.2,3.4-3,3.5C-694.2,95.4-693.8,93.4-695,93.4z"/>
<path d="M-675.9,106.1c-1.4,0.4-2.8,0.6-4.3,0.6c-3.9,0-6.2-1.3-6.2-5.2v-9.4h-1.8v-1.7c3-1,5.3-3.4,6-6.5h2.5v5.5h3.8v2.7h-3.8v9.4
	c0,1.8,0.8,2.4,1.9,2.4c0.7,0,1.3-0.1,1.9-0.4L-675.9,106.1z"/>
<path d="M-674.8,89.4h1.8v-0.1c0-5.8,4.4-8.9,9.4-8.9c2.8,0,4.9,1.2,4.9,3.4c0.1,1.6-1.2,3-2.8,3.1c-0.1,0-0.1,0-0.2,0
	c-2.8,0-2.5-3.4-3.6-3.4c-0.7,0-1,0.8-1,1.7v4.3h2.7v2.7h-2.7v10.8c0,0.9,0.5,1.2,2,1.4v1.8h-10.5v-1.8c1.5-0.2,1.8-0.5,1.8-1.4
	V92.1h-1.8V89.4z"/>
<path d="M-643.2,97.8c0,5.3-3.7,8.9-9.8,8.9c-6.1,0-9.8-3.7-9.8-8.9s3.8-8.9,9.8-8.9C-646.9,88.8-643.2,92.5-643.2,97.8z M-650,97.8
	c0-4.3-0.7-6.4-3-6.4s-3,2.1-3,6.4s0.6,6.4,3,6.4S-650,102-650,97.8L-650,97.8z"/>
<path d="M-641.9,106.1v-1.8c1.5-0.2,1.8-0.5,1.8-1.4V86.3c0-0.7-0.2-1-0.8-1h-1v-1.8l6-3.1h2.5v22.5c0,0.9,0.3,1.2,1.8,1.4v1.8
	L-641.9,106.1z"/>
<path d="M-630.5,106.1v-1.8c1.5-0.2,1.8-0.5,1.8-1.4v-8.1c0-0.7-0.2-1-0.8-1h-1V92l6-3.1h2.5v14.1c0,0.9,0.3,1.2,1.8,1.4v1.8
	L-630.5,106.1z M-621.5,83.9c0,1.9-1.6,3.5-3.6,3.4c-0.1,0-0.1,0-0.2,0c-1.9,0.1-3.5-1.3-3.7-3.2c0-0.1,0-0.2,0-0.2
	c0-1.9,1.6-3.5,3.5-3.5c0.1,0,0.1,0,0.2,0c2-0.1,3.7,1.3,3.8,3.3C-621.5,83.7-621.5,83.8-621.5,83.9L-621.5,83.9z"/>
<path d="M-599.4,97.8c0,5.3-3.7,8.9-9.8,8.9s-9.8-3.7-9.8-8.9s3.7-8.9,9.8-8.9S-599.4,92.5-599.4,97.8z M-606.2,97.8
	c0-4.3-0.7-6.4-3-6.4c-2.4,0-3,2.1-3,6.4s0.6,6.4,3,6.4C-606.8,104.2-606.2,102-606.2,97.8L-606.2,97.8z"/>
<path d="M19.8,10.2c0-1.3-1.5-1.8-2.9-1.8h-2.1c-5.9,0-9.2,3.3-9.2,7.2c0,3.4,1.9,5,3.5,5c0.7,0.1,1.3-0.4,1.3-1c0-0.1,0-0.2,0-0.3
	c0-1.2-0.8-1.4-0.8-3.1c-0.1-2,1.5-3.7,3.6-3.7c0.1,0,0.1,0,0.2,0c3,0,4.3,2.6,4.3,4.9c0,3.9-3.2,6.9-7.9,6.9
	c-4.4,0-7.8-2.9-7.8-8.5c0-7.1,6-10.5,12.8-10.5h16.6c9.6,0,14.8,1.6,14.8,7.9c0,6.8-5.2,8.3-15,8.3h-2.3v11.4
	c0,8.4-5.9,11.8-11.8,11.8c-5.2,0-7.3-2.1-7.3-4.9c0-1.9,1.5-3.5,3.4-3.6c0.1,0,0.1,0,0.2,0c4.2,0,3.5,4.2,5,4.2
	c1.1,0,1.4-1.9,1.4-5.2L19.8,10.2z M30.1,8.4c-0.7,0-1.2,0.5-1.3,1.1c0,0,0,0.1,0,0.1v8.2h2.3c3.2,0,5.3-1,5.3-4.9s-2.1-4.5-5.1-4.5
	L30.1,8.4z"/>
<path d="M66.8,23.1c0,5.3-3.7,8.9-9.8,8.9s-9.8-3.7-9.8-8.9s3.7-8.9,9.8-8.9S66.8,17.8,66.8,23.1z M60,23.1c0-4.3-0.7-6.4-3-6.4
	s-3,2.1-3,6.4s0.7,6.4,3,6.4S60,27.4,60,23.1z"/>
<path d="M77.9,18.7c-0.5,0-1,0.2-1.4,0.6v8.9c0,0.9,0.3,1.2,1.8,1.4v1.8H68.1v-1.8c1.5-0.2,1.8-0.5,1.8-1.4v-8.1c0-0.7-0.2-1-0.8-1
	h-1v-1.8l6-3.1h2.5v2c1.1-1.2,2.6-1.9,4.2-2c1.8-0.1,3.4,1.3,3.5,3.1c0.1,1.8-1.2,3.3-3,3.5C78.8,20.7,79.1,18.7,77.9,18.7z"/>
<path d="M97,31.4c-1.4,0.4-2.8,0.6-4.3,0.6c-3.9,0-6.2-1.3-6.2-5.2v-9.4h-1.8v-1.7c3-1,5.3-3.4,6-6.5h2.5v5.5H97v2.7h-3.8v9.4
	c0,1.8,0.8,2.4,1.9,2.4c0.7,0,1.3-0.1,1.9-0.4L97,31.4z"/>
<path d="M98.1,14.7h1.8v-0.1c0-5.8,4.4-8.9,9.4-8.9c2.8,0,4.9,1.2,4.9,3.3c0.1,1.6-1.1,3-2.8,3.1c-0.1,0-0.2,0-0.2,0
	c-2.8,0-2.5-3.4-3.6-3.4c-0.7,0-1,0.8-1,1.7v4.3h2.7v2.7h-2.8v10.8c0,0.9,0.5,1.2,2,1.4v1.8H98.1v-1.8c1.5-0.2,1.8-0.5,1.8-1.4V17.4
	h-1.8L98.1,14.7z"/>
<path d="M129.8,23.1c0,5.3-3.8,8.9-9.8,8.9s-9.8-3.7-9.8-8.9s3.8-8.9,9.8-8.9C126,14.2,129.8,17.8,129.8,23.1z M123,23.1
	c0-4.3-0.7-6.4-3-6.4s-3,2.1-3,6.4s0.6,6.4,3,6.4S123,27.4,123,23.1L123,23.1z"/>
<path d="M131,31.5v-1.8c1.5-0.2,1.8-0.5,1.8-1.4V11.6c0-0.7-0.2-1-0.8-1h-1V8.9l6-3.1h2.5v22.5c0,0.9,0.3,1.2,1.8,1.4v1.8L131,31.5z
	"/>
<path d="M142.4,31.5v-1.8c1.5-0.2,1.8-0.5,1.8-1.4v-8.1c0-0.7-0.2-1-0.8-1h-1v-1.8l6-3.1h2.5v14.1c0,0.9,0.3,1.2,1.8,1.4v1.8H142.4z
	 M151.4,9.2c0,1.9-1.6,3.5-3.6,3.4c-0.1,0-0.1,0-0.2,0c-1.9,0.1-3.6-1.3-3.7-3.2c0-0.1,0-0.2,0-0.3c0-1.9,1.6-3.5,3.5-3.5
	c0.1,0,0.1,0,0.2,0c2-0.1,3.6,1.4,3.8,3.3C151.4,9.1,151.4,9.2,151.4,9.2L151.4,9.2z"/>
<path d="M188.9,17.7c0,1.8-1,3.4-3,3.4c-1.4,0.1-2.6-0.9-2.7-2.3c0-0.1,0-0.1,0-0.2c0-0.7,0.3-1.2,0.3-1.7c0-1-1-1.7-2.6-1.7
	c-3.1,0-5.8,1.7-8.3,3.3c0.7,1.4,1,2.9,1,4.4c0,5.2-3.7,8.9-9.8,8.9s-9.8-3.7-9.8-8.9s3.6-8,7.2-8.8l0.7,1.2c-0.8,1.2-1,3.3-1,7.6
	c0,3.7,0.5,6.4,3,6.4s3-2.7,3-6.4V22c-0.5,0.1-0.9,0.2-1.4,0.2c-2.1,0.1-3.8-1.5-3.9-3.6c0-0.1,0-0.2,0-0.2
	c-0.1-2.3,1.8-4.2,4.1-4.2c0.1,0,0.2,0,0.3,0c2,0,3.9,0.9,5.3,2.4c2.9-2,6.4-4.3,10.6-4.3C185.7,12.3,188.9,14.2,188.9,17.7z
	 M166.5,19.3c-0.3-1.2-0.7-1.9-1.6-1.9c-0.5,0-0.9,0.4-0.9,0.9c0,0,0,0,0,0.1c0.1,0.7,0.7,1.2,1.4,1.1
	C165.7,19.5,166.1,19.4,166.5,19.3z"/>
</svg>
