<?xml version="1.0" standalone="no"?>
<!DOCTYPE svg PUBLIC "-//W3C//DTD SVG 20010904//EN"
 "http://www.w3.org/TR/2001/REC-SVG-20010904/DTD/svg10.dtd">
<svg version="1.0" xmlns="http://www.w3.org/2000/svg"
 width="860.000000pt" height="860.000000pt" viewBox="0 0 860.000000 860.000000"
 preserveAspectRatio="xMidYMid meet">
<metadata>
Created by potrace 1.14, written by Peter Selinger 2001-2017
</metadata>
<g transform="translate(0.000000,860.000000) scale(0.100000,-0.100000)"
fill="#000000" stroke="none">
<path d="M2819 7016 c-2 -2 -35 -6 -74 -10 -156 -14 -317 -46 -440 -86 -33
-11 -64 -20 -70 -21 -5 0 -16 -5 -22 -11 -7 -6 -13 -7 -13 -4 0 4 -12 1 -27
-7 -16 -8 -71 -34 -123 -58 -283 -131 -516 -352 -647 -614 -66 -130 -113 -295
-130 -450 -12 -114 -5 -368 11 -416 3 -7 7 -27 10 -44 10 -64 39 -154 77 -242
145 -329 458 -568 814 -621 56 -8 259 -8 325 0 107 14 128 18 215 43 224 65
413 199 533 380 159 237 192 589 79 835 -114 248 -360 375 -627 324 -164 -31
-292 -128 -360 -271 -40 -85 -45 -110 -44 -243 1 -104 5 -123 34 -200 47 -125
70 -209 66 -244 -2 -17 -4 -38 -5 -48 0 -9 -16 -32 -35 -51 -59 -61 -174 -62
-294 -2 -193 97 -294 327 -286 650 1 66 5 129 7 140 22 93 44 161 72 221 111
241 317 416 600 512 79 26 118 36 225 57 77 15 185 20 445 20 273 0 294 -1
362 -23 85 -26 148 -72 177 -127 21 -40 21 -43 20 -1305 0 -1116 -4 -1443 -19
-1555 -2 -16 -6 -62 -10 -101 -3 -39 -7 -80 -9 -90 -2 -11 -6 -40 -10 -65 -8
-56 -15 -96 -21 -129 -3 -14 -7 -34 -9 -45 -26 -133 -87 -317 -142 -428 -162
-329 -403 -513 -779 -595 -85 -19 -128 -25 -252 -38 -122 -13 -467 -5 -516 11
-6 2 -30 7 -51 10 -245 35 -507 164 -673 331 -265 266 -341 654 -188 959 100
201 260 306 469 310 277 6 423 -113 472 -385 32 -169 56 -248 108 -340 38 -69
128 -160 186 -190 87 -45 139 -55 270 -54 86 0 118 4 176 25 312 112 450 441
337 804 -74 237 -261 440 -528 573 -118 59 -296 116 -425 137 -25 4 -54 9 -65
11 -40 8 -202 18 -295 18 -160 0 -275 -15 -454 -59 -118 -28 -285 -104 -406
-183 -98 -65 -259 -220 -317 -307 -109 -163 -175 -334 -200 -520 -10 -75 -10
-261 0 -340 59 -452 370 -860 817 -1072 171 -81 427 -155 615 -178 28 -4 61
-8 75 -11 125 -22 551 -22 765 1 87 9 182 22 225 30 14 3 39 7 55 9 17 3 63
12 104 21 785 168 1360 571 1664 1167 46 89 133 296 141 333 1 6 10 37 20 70
10 33 20 67 21 75 2 8 4 16 4 18 1 2 13 -3 29 -12 94 -50 282 -107 405 -122
23 -3 47 -7 54 -9 27 -9 219 -19 368 -19 140 0 294 7 445 19 41 3 158 11 300
21 72 5 305 4 350 -1 120 -13 232 -56 281 -108 86 -91 94 -242 19 -352 -73
-105 -232 -197 -416 -241 -70 -17 -79 -18 -149 -29 -101 -15 -338 -21 -420
-11 -16 2 -59 7 -95 11 -94 11 -98 12 -178 29 -256 55 -516 159 -721 287 l-93
59 -94 -71 c-52 -40 -109 -86 -128 -103 l-35 -31 127 -175 c69 -96 208 -290
309 -430 100 -140 189 -264 197 -275 8 -11 49 -69 91 -128 57 -79 82 -107 93
-102 29 11 297 128 301 132 3 2 6 49 7 106 1 56 3 104 3 107 1 3 90 5 199 5
176 0 329 8 364 20 7 2 38 6 68 10 30 3 83 12 118 20 34 8 75 17 90 20 15 2
74 18 131 35 370 110 737 325 991 580 208 209 330 411 399 661 27 94 36 169
35 294 0 156 -16 252 -64 397 -96 287 -263 482 -508 595 -42 20 -80 36 -86 38
-6 1 -18 5 -26 8 -26 11 -164 45 -205 51 -23 4 -50 8 -62 10 -141 28 -616 28
-903 1 -196 -18 -460 -24 -555 -13 -181 22 -270 73 -322 186 -63 134 -6 280
144 368 58 34 174 73 243 82 103 13 368 8 415 -9 11 -3 38 -9 60 -13 64 -9 82
-14 188 -46 203 -63 402 -160 582 -282 59 -40 73 -45 87 -35 68 47 257 204
257 214 1 9 -282 418 -640 925 l-69 97 -147 -65 c-82 -36 -152 -69 -157 -74
-5 -5 -10 -53 -12 -107 -3 -54 -6 -103 -8 -109 -3 -8 -18 -9 -48 -4 -167 32
-430 33 -593 4 -172 -30 -358 -94 -550 -189 -135 -67 -317 -175 -353 -211 -7
-8 -17 -14 -22 -14 -5 0 -8 262 -7 593 l2 592 24 52 c40 89 121 131 286 148
22 3 51 7 65 10 l25 6 -2 117 c-1 64 -2 129 -2 145 l-1 27 -1254 0 c-689 0
-1255 -2 -1257 -4z"/>
</g>
</svg>
