<?xml version="1.0" encoding="utf-8"?>
<!-- Generator: Adobe Adobe Illustrator 24.2.0, SVG Export Plug-In . SVG Version: 6.00 Build 0)  -->
<svg version="1.1" xmlns="http://www.w3.org/2000/svg" xmlns:xlink="http://www.w3.org/1999/xlink" x="0px" y="0px"
	 viewBox="0 0 173 43.5" style="enable-background:new 0 0 173 43.5;" xml:space="preserve">
<style type="text/css">
	.st0{display:none;}
	.st1{display:inline;fill:none;}
	.st2{display:inline;}
	.st3{fill:none;}
	.st4{fill:none;stroke:#000000;stroke-width:4;stroke-linecap:round;stroke-linejoin:round;}
</style>
<g id="Layer_1">
	<g>
		<rect class="st3" width="173" height="46"/>
		<path d="M15.59,6.99h-2.14c-5.92,0-9.2,3.28-9.2,7.18c0,3.4,1.93,4.96,3.49,4.96c0.97,0,1.34-0.55,1.34-1.34
			c0-1.18-0.8-1.43-0.8-3.11c0-2.35,1.81-3.74,3.78-3.74c3.02,0,4.33,2.56,4.33,4.87c0,3.91-3.19,6.89-7.86,6.89
			c-4.37,0-7.86-2.86-7.86-8.53c0-7.06,5.96-10.54,12.77-10.54h16.59c9.62,0,14.79,1.55,14.79,7.9c0,6.76-5.17,8.28-14.95,8.28H27.6
			v10.8c0,8.4-5.88,11.76-11.85,11.76c-5.21,0-7.35-2.1-7.35-4.87c0-2.1,1.6-3.57,3.65-3.57c4.2,0,3.45,4.24,5.04,4.24
			c1.13,0,1.43-1.89,1.43-5.17V8.75C18.53,7.45,17.02,6.99,15.59,6.99z M28.86,6.99c-0.76,0-1.26,0.5-1.26,1.26v8.19h2.27
			c3.23,0,5.29-1.01,5.29-4.92s-2.06-4.54-5.12-4.54H28.86z"/>
		<path d="M65.54,21.64c0,5.25-3.74,8.93-9.79,8.93s-9.79-3.67-9.79-8.93c0-5.26,3.74-8.93,9.79-8.93S65.54,16.39,65.54,21.64z
			 M58.74,21.64c0-4.28-0.65-6.37-2.99-6.37s-2.99,2.09-2.99,6.37c0,4.28,0.65,6.41,2.99,6.41S58.74,25.93,58.74,21.64z"/>
		<path d="M76.66,17.29c-0.5,0-0.97,0.18-1.37,0.61v8.89c0,0.94,0.32,1.22,1.8,1.4v1.84H66.8v-1.84c1.48-0.18,1.8-0.47,1.8-1.4
			v-8.17c0-0.72-0.22-1.01-0.79-1.01H66.8v-1.76l6.01-3.13h2.48v2.02c0.97-1.08,2.56-2.02,4.25-2.02c1.94,0,3.38,1.12,3.38,3.24
			c0,2.09-1.4,3.35-2.88,3.35C77.53,19.3,77.89,17.29,76.66,17.29z"/>
		<path d="M91.46,30.57c-3.92,0-6.19-1.26-6.19-5.22v-9.36h-1.8v-1.73c3.13-1.19,5.15-3.28,6.01-6.52h2.48v5.51h3.78v2.74h-3.78
			v9.36c0,1.8,0.83,2.41,1.87,2.41c0.54,0,1.48-0.14,1.91-0.36v2.59C94.66,30.32,92.9,30.57,91.46,30.57z"/>
		<path d="M98.62,13.26v-0.07c0-5.83,4.43-8.89,9.39-8.89c2.81,0,4.93,1.19,4.93,3.35c0,1.73-1.19,3.06-3.02,3.06
			c-2.84,0-2.52-3.46-3.6-3.46c-0.68,0-1.01,0.76-1.01,1.69v4.32h2.7v2.74h-2.7v10.8c0,0.94,0.5,1.22,1.98,1.4v1.84H96.83v-1.84
			c1.48-0.18,1.8-0.47,1.8-1.4v-10.8h-1.8v-2.74H98.62z"/>
		<path d="M128.5,21.64c0,5.25-3.74,8.93-9.79,8.93s-9.79-3.67-9.79-8.93c0-5.26,3.74-8.93,9.79-8.93S128.5,16.39,128.5,21.64z
			 M121.7,21.64c0-4.28-0.65-6.37-2.99-6.37s-2.99,2.09-2.99,6.37c0,4.28,0.65,6.41,2.99,6.41S121.7,25.93,121.7,21.64z"/>
		<path d="M129.77,28.19c1.48-0.18,1.8-0.47,1.8-1.4V10.2c0-0.72-0.22-1.01-0.79-1.01h-1.01V7.42l6.01-3.13h2.48v22.5
			c0,0.94,0.32,1.22,1.8,1.4v1.84h-10.29V28.19z"/>
		<path d="M141.14,28.19c1.48-0.18,1.8-0.47,1.8-1.4v-8.17c0-0.72-0.22-1.01-0.79-1.01h-1.01v-1.76l6.01-3.13h2.48v14.07
			c0,0.94,0.32,1.22,1.8,1.4v1.84h-10.29V28.19z M150.18,7.78c0,1.69-1.33,3.42-3.74,3.42c-2.45,0-3.71-1.73-3.71-3.42
			s1.26-3.49,3.71-3.49C148.84,4.29,150.18,6.09,150.18,7.78z"/>
		<path d="M172.28,21.64c0,5.25-3.74,8.93-9.79,8.93s-9.79-3.67-9.79-8.93c0-5.26,3.74-8.93,9.79-8.93S172.28,16.39,172.28,21.64z
			 M165.48,21.64c0-4.28-0.65-6.37-2.99-6.37s-2.99,2.09-2.99,6.37c0,4.28,0.65,6.41,2.99,6.41S165.48,25.93,165.48,21.64z"/>
	</g>
</g>
<g id="Layer_2" class="st0">
	<g id="Layer_3" class="st2">
	</g>
</g>
</svg>
