<?xml version="1.0" encoding="utf-8"?>
<!-- Generator: Adobe Illustrator 26.0.3, SVG Export Plug-In . SVG Version: 6.00 Build 0)  -->
<svg version="1.1" id="Layer_1" xmlns="http://www.w3.org/2000/svg" xmlns:xlink="http://www.w3.org/1999/xlink" x="0px" y="0px"
	 viewBox="0 0 307.9 46.5" style="enable-background:new 0 0 307.9 46.5;" xml:space="preserve">
<path d="M62.4,28.6c0,2.1,0.6,2.3,3,2.6v2.1H50.4v-2.1c2.1-0.2,2.9-0.4,2.9-2.6v-3H44l-2.2,3.2c-7.3,10.2-14.9,14-23.2,14
	C8.6,42.7,2.4,37,2.4,29.6C2.5,24,7,19.4,12.6,19.4c5.2,0,8.3,2.8,8.3,6c0.1,2.2-1.5,4.1-3.8,4.2c-0.1,0-0.2,0-0.3,0
	c-4,0-3.4-5.6-6.6-5.6c-2.1,0-4.2,2.3-4.2,5.5c0,6.4,6.5,9.8,12.6,9.8c7,0,14-3.2,20.7-12.8L51.5,9.3c0.9-1.3,0-2-1.3-2H38.1
	c-5.8,0-9.2,3.1-9.2,6.8c0,3.4,1.9,5,3.5,5c0.7,0.1,1.3-0.4,1.3-1c0-0.1,0-0.2,0-0.3c0-1.2-0.8-1.5-0.8-3.1c-0.1-2,1.5-3.7,3.6-3.7
	c0.1,0,0.1,0,0.2,0c3,0,4.3,2.6,4.3,4.9c0,3.9-3.2,6.9-7.9,6.9c-4.4,0-7.8-2.9-7.8-8.5c0-6.8,6-10.1,12.8-10.1h24.3V28.6z
	 M46.4,22.2h6.9v-9.7L46.4,22.2z"/>
<path d="M66.3,36.9v-1.8c1.5-0.2,1.8-0.5,1.8-1.4V18.9c0-0.7-0.2-1-0.8-1h-1v-1.8l6-3.1h2.5v1.6c1.3-1.1,2.9-1.6,4.6-1.6
	c4.4,0,7.7,3.3,7.7,8.9s-3.4,8.9-8.7,8.9c-1.3,0-2.5-0.3-3.6-0.8v3.7c0,0.9,0.3,1.2,1.8,1.4v1.8L66.3,36.9z M74.8,26.5
	c0.5,0.8,1.4,1.3,2.3,1.2c2.2,0,3.2-1.6,3.2-5.9s-1.1-5.8-3.2-5.8c-0.9-0.1-1.8,0.4-2.3,1.2V26.5z"/>
<path d="M88.2,36.9v-1.8c1.5-0.2,1.8-0.5,1.8-1.4V18.9c0-0.7-0.2-1-0.8-1h-1v-1.8l6-3.1h2.5v1.6c1.3-1.1,2.9-1.6,4.6-1.6
	c4.3,0,7.7,3.3,7.7,8.9s-3.4,8.9-8.7,8.9c-1.3,0-2.5-0.3-3.6-0.8v3.7c0,0.9,0.3,1.2,1.8,1.4v1.8L88.2,36.9z M96.7,26.5
	c0.5,0.8,1.4,1.3,2.3,1.2c2.2,0,3.2-1.6,3.2-5.9s-1-5.8-3.2-5.8c-0.9-0.1-1.8,0.4-2.3,1.2V26.5z"/>
<path d="M110.4,30.3v-1.8c1.5-0.2,1.8-0.5,1.8-1.4V10.4c0-0.7-0.2-1-0.8-1h-1V7.7l6-3.1h2.5V27c0,0.9,0.3,1.2,1.8,1.4v1.8
	L110.4,30.3z"/>
<path d="M121.7,30.3v-1.8c1.5-0.2,1.8-0.5,1.8-1.4v-8.2c0-0.7-0.2-1-0.8-1h-1v-1.8l6-3.1h2.5V27c0,0.9,0.3,1.2,1.8,1.4v1.8
	L121.7,30.3z M130.7,8c0,1.9-1.6,3.5-3.6,3.4c-0.1,0-0.1,0-0.2,0c-1.9,0.1-3.5-1.3-3.7-3.2c0-0.1,0-0.2,0-0.2c0-1.9,1.6-3.5,3.5-3.5
	c0.1,0,0.1,0,0.2,0c2-0.1,3.6,1.4,3.8,3.3C130.8,7.9,130.8,8,130.7,8L130.7,8z"/>
<path d="M140.1,21.3v0.5c0,4.3,1.2,6,3.9,6c1.9,0,3.9-1.3,5.2-3.9l2.3,1.4c-1.7,3.2-4,5.4-8.4,5.4c-6,0-9.8-3.7-9.8-8.9
	s3.9-8.9,9.2-8.9c5.7,0,8.5,3.3,8.5,8.4L140.1,21.3z M144.8,18.6c0-1.9-0.8-3.1-2.1-3.1c-1.5,0-2.2,0.9-2.5,3.1H144.8z"/>
<path d="M163.3,7.7l6-3.1h2.5V27c0,0.9,0.3,1.2,1.8,1.4v1.8c-2.8,0-5.7,0.2-8.5,0.5v-1.6c-1.3,1.1-2.9,1.7-4.6,1.6
	c-4.3,0-7.7-3.3-7.7-8.9s3.4-8.9,7.7-8.9c1.7-0.1,3.3,0.5,4.6,1.6v-4.1c0-0.7-0.2-1-0.8-1h-1V7.7z M165.1,17.3
	c-0.5-0.8-1.4-1.3-2.3-1.3c-2.2,0-3.2,1.6-3.2,5.9s1,5.8,3.2,5.8c0.9,0,1.8-0.4,2.3-1.2V17.3z"/>
<path d="M193.7,7.7l6-3.1h2.5V27c0,0.9,0.3,1.2,1.8,1.4v1.8c-2.8,0-5.7,0.2-8.5,0.5v-1.6c-1.3,1.1-2.9,1.7-4.6,1.6
	c-4.4,0-7.7-3.3-7.7-8.9s3.4-8.9,7.7-8.9c1.7-0.1,3.3,0.5,4.6,1.6v-4.1c0-0.7-0.2-1-0.8-1h-1V7.7z M195.5,17.3
	c-0.5-0.8-1.4-1.3-2.3-1.3c-2.2,0-3.2,1.6-3.2,5.9s1,5.8,3.2,5.8c0.9,0.1,1.8-0.4,2.3-1.2V17.3z"/>
<path d="M212,21.3v0.5c0,4.3,1.2,6,3.9,6c1.9,0,3.9-1.3,5.2-3.9l2.3,1.4c-1.7,3.2-4,5.4-8.4,5.4c-6,0-9.8-3.7-9.8-8.9
	s3.9-8.9,9.3-8.9c5.7,0,8.5,3.3,8.5,8.4L212,21.3z M216.7,18.6c0-1.9-0.8-3.1-2.1-3.1c-1.6,0-2.2,0.9-2.5,3.1H216.7z"/>
<path d="M241.3,24.6c0,4-3.6,6.2-8,6.2c-1.9,0-3.8-0.5-5.5-1.5l-0.4,0.9h-1.6l-1.3-6.2l1.5-0.4c1.8,2.9,4.9,4.6,7.1,4.6
	c1.3,0,2-0.6,2-1.5s-1.5-1.6-3.3-2.3c-2.9-1-6.6-2.3-6.6-6c0-3.4,3.5-5.7,7.4-5.7c1.7-0.1,3.4,0.5,4.9,1.5l0.5-0.9h1.6l1.1,5.6
	l-1.6,0.4c-1.5-2.6-4-4.2-5.7-4.2c-1,0-1.6,0.5-1.6,1.3c0,1,1.3,1.6,3,2.2C238.1,20,241.3,21.2,241.3,24.6z"/>
<path d="M242.4,30.3v-1.8c1.5-0.2,1.8-0.5,1.8-1.4v-8.2c0-0.7-0.2-1-0.8-1h-1v-1.8l6-3.1h2.5V27c0,0.9,0.3,1.2,1.8,1.4v1.8
	L242.4,30.3z M251.4,8c0,1.9-1.6,3.5-3.6,3.4c-0.1,0-0.1,0-0.2,0c-1.9,0.1-3.5-1.3-3.7-3.2c0-0.1,0-0.2,0-0.2c0-1.9,1.6-3.5,3.5-3.5
	c0.1,0,0.1,0,0.2,0c2-0.1,3.6,1.3,3.8,3.3C251.4,7.9,251.4,8,251.4,8L251.4,8z"/>
<path d="M268.1,14.5c1.5,1,2.4,2.7,2.3,4.5c0,3.5-3.1,6-8,6c-1.1,0-2.1-0.2-3.2-0.3c-0.5,0-0.8,0.2-0.8,0.5c0,0.7,1.9,0.8,6.7,1
	s7,2,7,5.3c0,4.1-4.5,5.9-9.7,5.9c-3.7,0-8.5-1-8.5-4.2c0-1.1,0.7-2.2,1.8-2.5c-1.2-0.7-1.9-2.1-1.8-3.5c-0.1-1.7,1.1-3.3,2.7-3.8
	c-1.5-1-2.3-2.7-2.3-4.4c0-3.5,3.1-6,8-6c1,0,1.9,0.1,2.9,0.3c1.3-1.8,3.3-2.9,5.5-3c1.4,0,2.7,0.7,2.7,2.3c0,1.2-0.9,2.2-2.1,2.2
	c0,0,0,0,0,0c-1.4,0-1.3-0.9-2.2-0.9C268.7,13.9,268.3,14.1,268.1,14.5z M263.1,32.2c-1.4-0.1-2.8-0.2-4.1-0.4
	c-0.5,0.1-0.9,0.6-1,1.2c0,0.8,1,2,4.4,2c3,0,4.1-1,4.1-1.6C266.5,32.5,265.9,32.3,263.1,32.2L263.1,32.2z M264.4,19
	c0-2.5-0.7-3.5-2-3.5s-2,1-2,3.5s0.7,3.5,2,3.5S264.4,21.5,264.4,19L264.4,19z"/>
<path d="M293,35c0,4.8,2.5,6.4,5.3,6.4c2.4,0,4.1-1.5,4.1-3.3c0-1.2-0.6-1.8-1.3-1.8c-1.2,0-1.4,2-3.6,2c-1.6-0.1-2.9-1.4-2.9-3
	c0-2.1,1.8-3.6,4.5-3.6c3.3-0.1,6.2,2.4,6.3,5.8c0,0.1,0,0.2,0,0.4c0,3.3-2.6,6.6-8,6.6c-7.1,0-11.2-4.2-11.2-11.3V18.7
	c0.1-1-0.6-2-1.7-2.1c-0.1,0-0.3,0-0.4,0c-0.9,0-1.8,0.3-2.5,0.9V27c0,0.9,0.3,1.2,1.8,1.4v1.8h-10.3v-1.8c1.5-0.2,1.8-0.5,1.8-1.4
	v-8.2c0-0.7-0.2-1-0.8-1h-1v-1.8l6-3.1h2.5v1.8c1.6-1.1,3.4-1.7,5.3-1.8c2.9,0,6,1,6,6L293,35z"/>
<path d="M-1075.7,134.8c0-1.3-1.5-1.8-2.9-1.8h-2.1c-5.9,0-9.2,3.3-9.2,7.2c0,3.4,1.9,5,3.5,5c0.7,0.1,1.3-0.4,1.3-1
	c0-0.1,0-0.2,0-0.3c0-1.2-0.8-1.4-0.8-3.1c-0.1-2,1.5-3.7,3.6-3.7c0.1,0,0.1,0,0.2,0c3,0,4.3,2.6,4.3,4.9c0,3.9-3.2,6.9-7.9,6.9
	c-4.4,0-7.8-2.9-7.8-8.5c0-7.1,6-10.5,12.8-10.5h16.6c9.6,0,14.8,1.6,14.8,7.9c0,6.8-5.2,8.3-15,8.3h-2.3v11.4
	c0,8.4-5.9,11.8-11.8,11.8c-5.2,0-7.4-2.1-7.4-4.9c0-1.9,1.5-3.5,3.4-3.6c0.1,0,0.1,0,0.2,0c4.2,0,3.5,4.2,5,4.2
	c1.1,0,1.4-1.9,1.4-5.2L-1075.7,134.8z M-1065.4,133.1c-0.7,0-1.2,0.5-1.3,1.1c0,0,0,0.1,0,0.1v8.2h2.3c3.2,0,5.3-1,5.3-4.9
	s-2.1-4.5-5.1-4.5H-1065.4z"/>
<path d="M-1028.7,147.7c0,5.3-3.7,8.9-9.8,8.9c-6.1,0-9.8-3.7-9.8-8.9s3.7-8.9,9.8-8.9C-1032.4,138.8-1028.7,142.5-1028.7,147.7z
	 M-1035.5,147.7c0-4.3-0.7-6.4-3-6.4c-2.4,0-3,2.1-3,6.4s0.6,6.4,3,6.4C-1036.1,154.2-1035.5,152-1035.5,147.7z"/>
<path d="M-1017.6,143.4c-0.5,0-1,0.2-1.4,0.6v8.9c0,0.9,0.3,1.2,1.8,1.4v1.8h-10.3v-1.8c1.5-0.2,1.8-0.5,1.8-1.4v-8.1
	c0-0.7-0.2-1-0.8-1h-1V142l6-3.1h2.5v2c1.1-1.2,2.6-1.9,4.2-2c1.8-0.1,3.4,1.2,3.5,3.1c0.1,1.8-1.2,3.4-3,3.5
	C-1016.7,145.4-1016.3,143.4-1017.6,143.4z"/>
<path d="M-998.5,156.1c-1.4,0.4-2.8,0.6-4.3,0.6c-3.9,0-6.2-1.3-6.2-5.2v-9.4h-1.8v-1.7c3-1,5.3-3.4,6-6.5h2.5v5.5h3.8v2.7h-3.8v9.4
	c0,1.8,0.8,2.4,1.9,2.4c0.7,0,1.3-0.1,1.9-0.4L-998.5,156.1z"/>
<path d="M-997.4,139.3h1.8v-0.1c0-5.8,4.4-8.9,9.4-8.9c2.8,0,4.9,1.2,4.9,3.4c0.1,1.6-1.2,3-2.8,3.1c-0.1,0-0.1,0-0.2,0
	c-2.8,0-2.5-3.4-3.6-3.4c-0.7,0-1,0.8-1,1.7v4.3h2.7v2.7h-2.7v10.8c0,0.9,0.5,1.2,2,1.4v1.8h-10.5v-1.8c1.5-0.2,1.8-0.5,1.8-1.4
	v-10.8h-1.8V139.3z"/>
<path d="M-965.7,147.7c0,5.3-3.7,8.9-9.8,8.9s-9.8-3.7-9.8-8.9s3.8-8.9,9.8-8.9S-965.7,142.5-965.7,147.7z M-972.5,147.7
	c0-4.3-0.6-6.4-3-6.4c-2.3,0-3,2.1-3,6.4s0.6,6.4,3,6.4S-972.5,152-972.5,147.7L-972.5,147.7z"/>
<path d="M-964.5,156.1v-1.8c1.5-0.2,1.8-0.5,1.8-1.4v-16.6c0-0.7-0.2-1-0.8-1h-1v-1.8l6-3.1h2.5v22.5c0,0.9,0.3,1.2,1.8,1.4v1.8
	L-964.5,156.1z"/>
<path d="M-953.1,156.1v-1.8c1.5-0.2,1.8-0.5,1.8-1.4v-8.1c0-0.7-0.2-1-0.8-1h-1V142l6-3.1h2.5v14.1c0,0.9,0.3,1.2,1.8,1.4v1.8
	L-953.1,156.1z M-944.1,133.9c0,1.9-1.6,3.5-3.6,3.4c-0.1,0-0.1,0-0.2,0c-1.9,0.1-3.5-1.3-3.7-3.2c0-0.1,0-0.2,0-0.2
	c0-1.9,1.6-3.5,3.5-3.5c0.1,0,0.1,0,0.2,0c2-0.1,3.7,1.3,3.8,3.3C-944,133.7-944,133.8-944.1,133.9L-944.1,133.9z"/>
<path d="M-921.9,147.7c0,5.3-3.7,8.9-9.8,8.9c-6,0-9.8-3.7-9.8-8.9s3.7-8.9,9.8-8.9C-925.7,138.8-921.9,142.5-921.9,147.7z
	 M-928.7,147.7c0-4.3-0.7-6.4-3-6.4c-2.4,0-3,2.1-3,6.4s0.6,6.4,3,6.4C-929.4,154.2-928.7,152-928.7,147.7L-928.7,147.7z"/>
<path d="M-302.5,62.8c0-1.3-1.5-1.8-2.9-1.8h-2.1c-5.9,0-9.2,3.3-9.2,7.2c0,3.4,1.9,5,3.5,5c0.7,0.1,1.3-0.4,1.3-1
	c0-0.1,0-0.2,0-0.3c0-1.2-0.8-1.4-0.8-3.1c-0.1-2,1.5-3.7,3.6-3.7c0.1,0,0.1,0,0.2,0c3,0,4.3,2.6,4.3,4.9c0,3.9-3.2,6.9-7.9,6.9
	c-4.4,0-7.8-2.9-7.8-8.5c0-7.1,6-10.5,12.8-10.5h16.5c9.6,0,14.8,1.6,14.8,7.9c0,6.8-5.2,8.3-15,8.3h-2.2v11.4
	c0,8.4-5.9,11.8-11.8,11.8c-5.2,0-7.3-2.1-7.3-4.9c0-1.9,1.5-3.5,3.4-3.6c0.1,0,0.1,0,0.2,0c4.2,0,3.4,4.2,5,4.2
	c1.1,0,1.4-1.9,1.4-5.2L-302.5,62.8z M-292.2,61.1c-0.7,0-1.2,0.5-1.3,1.1c0,0,0,0.1,0,0.1v8.2h2.3c3.2,0,5.3-1,5.3-4.9
	s-2-4.5-5.1-4.5L-292.2,61.1z"/>
<path d="M-255.5,75.7c0,5.3-3.8,8.9-9.8,8.9s-9.8-3.7-9.8-8.9s3.7-8.9,9.8-8.9S-255.5,70.5-255.5,75.7z M-262.3,75.7
	c0-4.3-0.7-6.4-3-6.4s-3,2.1-3,6.4s0.7,6.4,3,6.4S-262.3,80-262.3,75.7z"/>
<path d="M-244.4,71.4c-0.5,0-1,0.2-1.4,0.6v8.9c0,0.9,0.3,1.2,1.8,1.4v1.8h-10.3v-1.8c1.5-0.2,1.8-0.5,1.8-1.4v-8.1
	c0-0.7-0.2-1-0.8-1h-1v-1.8l6-3.1h2.5v2c1.1-1.2,2.6-1.9,4.2-2c1.8-0.1,3.4,1.2,3.5,3.1c0.1,1.8-1.2,3.4-3,3.5
	C-243.5,73.4-243.1,71.4-244.4,71.4z"/>
<path d="M-225.3,84.1c-1.4,0.4-2.8,0.6-4.3,0.6c-3.9,0-6.2-1.3-6.2-5.2v-9.4h-1.8v-1.7c3-1,5.3-3.4,6-6.5h2.5v5.5h3.8v2.7h-3.8v9.4
	c0,1.8,0.8,2.4,1.9,2.4c0.7,0,1.3-0.1,1.9-0.4L-225.3,84.1z"/>
<path d="M-224.2,67.3h1.8v-0.1c0-5.8,4.4-8.9,9.4-8.9c2.8,0,4.9,1.2,4.9,3.3c0.1,1.6-1.2,3-2.8,3.1c-0.1,0-0.1,0-0.2,0
	c-2.8,0-2.5-3.4-3.6-3.4c-0.7,0-1,0.8-1,1.7v4.3h2.7v2.7h-2.7v10.8c0,0.9,0.5,1.2,2,1.4v1.8h-10.5v-1.8c1.5-0.2,1.8-0.5,1.8-1.4
	V70.1h-1.8L-224.2,67.3z"/>
<path d="M-192.5,75.7c0,5.3-3.7,8.9-9.8,8.9s-9.8-3.7-9.8-8.9s3.8-8.9,9.8-8.9C-196.3,66.8-192.5,70.5-192.5,75.7z M-199.3,75.7
	c0-4.3-0.7-6.4-3-6.4s-3,2.1-3,6.4s0.7,6.4,3,6.4S-199.3,80-199.3,75.7z"/>
<path d="M-191.2,84.1v-1.8c1.5-0.2,1.8-0.5,1.8-1.4V64.3c0-0.7-0.2-1-0.8-1h-1v-1.8l6-3.1h2.5v22.5c0,0.9,0.3,1.2,1.8,1.4v1.8
	L-191.2,84.1z"/>
<path d="M-179.9,84.1v-1.8c1.5-0.2,1.8-0.5,1.8-1.4v-8.1c0-0.7-0.2-1-0.8-1h-1v-1.8l6-3.1h2.5v14.1c0,0.9,0.3,1.2,1.8,1.4v1.8
	H-179.9z M-170.9,61.9c0,1.9-1.6,3.5-3.6,3.4c-0.1,0-0.1,0-0.2,0c-1.9,0.1-3.5-1.3-3.7-3.2c0-0.1,0-0.2,0-0.2c0-1.9,1.6-3.5,3.5-3.5
	c0.1,0,0.1,0,0.2,0c2-0.1,3.7,1.4,3.8,3.3C-170.8,61.8-170.8,61.8-170.9,61.9L-170.9,61.9z"/>
<path d="M-148.7,75.7c0,5.3-3.7,8.9-9.8,8.9s-9.8-3.7-9.8-8.9s3.7-8.9,9.8-8.9S-148.7,70.5-148.7,75.7z M-155.5,75.7
	c0-4.3-0.7-6.4-3-6.4s-3,2.1-3,6.4s0.7,6.4,3,6.4S-155.5,80-155.5,75.7z"/>
</svg>
